<svg fill="none" height="32" viewBox="0 0 32 32" width="32" xmlns="http://www.w3.org/2000/svg"><path d="m12.6667 8.66667v4.00003h-4.00003v-4.00003zm2-2h-8.00003v8.00003h8.00003zm-2 12.66663v4h-4.00003v-4zm2-2h-8.00003v8h8.00003zm8.6666-8.66663v4.00003h-4v-4.00003zm2-2h-8v8.00003h8zm-8 10.66663h2v2h-2zm2 2h2v2h-2zm2-2h2v2h-2zm-4 4h2v2h-2zm2 2h2v2h-2zm2-2h2v2h-2zm2-2h2v2h-2zm0 4h2v2h-2zm6-13.99997h-2.6666v-4h-4v-2.66666h6.6666zm0 19.99997v-6.6666h-2.6666v4h-4v2.6666zm-26.66663 0h6.66666v-2.6666h-4v-4h-2.66666zm0-26.66663v6.66666h2.66666v-4h4v-2.66666z" fill="#2a2238"/></svg>